<svg width="65" height="40" viewBox="0 0 65 40" fill="none" xmlns="http://www.w3.org/2000/svg">
<path d="M0 20C0 8.95431 8.95431 0 20 0V0C31.0457 0 40 8.95431 40 20V20C40 31.0457 31.0457 40 20 40V40C8.95431 40 0 31.0457 0 20V20Z" fill="#11636E"/>
<path d="M29.7723 10.5135L25.0956 8.08408C24.542 7.79685 23.8799 7.79451 23.3244 8.07939C22.7689 8.36427 22.4376 8.87546 22.4376 9.44663V22.1472C22.4376 24.6207 20.4619 26.6899 17.8439 27.1654C17.6611 26.666 17.5621 26.1332 17.5621 25.5799V18.5089C17.5621 17.9499 17.2257 17.4275 16.6843 17.1464L12.0081 14.7169C11.4545 14.4297 10.7924 14.4273 10.2369 14.7122C9.68182 14.9971 9.3501 15.5083 9.3501 16.0795V22.1472C9.3501 25.7607 12.6457 28.7004 16.6965 28.7004C16.746 28.7004 16.7945 28.7004 16.8435 28.699C18.0885 30.7428 20.5175 32.133 23.3032 32.133C27.3541 32.133 30.6501 29.1933 30.6501 25.5799V11.8765C30.6501 11.3176 30.3132 10.7951 29.7718 10.514L29.7723 10.5135ZM10.9559 22.1477V16.0799C10.9559 16.0246 10.9833 15.982 11.0375 15.9544C11.0643 15.9403 11.0912 15.9337 11.1185 15.9337C11.1458 15.9337 11.1732 15.9408 11.2 15.9548L15.8762 18.3843C15.9261 18.4101 15.9568 18.4578 15.9568 18.5094V25.5803C15.9568 26.1566 16.0411 26.7166 16.1985 27.2493C13.2653 27.023 10.9559 24.8213 10.9559 22.1472V22.1477ZM29.0447 25.5803C29.0447 28.4038 26.4692 30.7011 23.3037 30.7011C21.3458 30.7011 19.6128 29.8221 18.5766 28.483C21.72 27.7403 24.0434 25.1816 24.0434 22.1472V9.4471C24.0434 9.39134 24.0708 9.34917 24.125 9.32153C24.1787 9.29388 24.2338 9.29388 24.288 9.32153L28.9642 11.751C29.0141 11.7767 29.0452 11.8245 29.0452 11.8761V25.5799L29.0447 25.5803Z" fill="white"/>
<path d="M63.3873 20.2639C62.9073 20.0479 62.4033 19.9279 61.8753 19.9279C61.1073 19.9279 60.3393 20.4319 59.9313 21.2959V28.4239C59.9313 28.5919 59.8593 28.6639 59.6913 28.6639H57.4353C57.2673 28.6639 57.1953 28.5919 57.1953 28.4239V17.6479C57.1953 17.4799 57.2673 17.4079 57.4353 17.4079H58.9953C59.1633 17.4079 59.2833 17.4799 59.3073 17.6479L59.5473 18.3919C60.3633 17.5759 61.3233 17.1679 62.4033 17.1679C62.8353 17.1679 63.4113 17.2639 64.1313 17.4559C64.2993 17.5039 64.3473 17.5999 64.2993 17.7679L63.7233 20.1199C63.6993 20.2879 63.5793 20.3359 63.3873 20.2639Z" fill="#11636E"/>
<path d="M44 28.4239V11.5759C44 11.4079 44.072 11.3359 44.24 11.3359H46.496C46.664 11.3359 46.736 11.4079 46.736 11.5759V18.7519C47.48 17.6719 48.608 17.1199 50.12 17.1199C52.712 17.1199 54.416 19.0159 54.416 22.1599V28.4239C54.416 28.5919 54.344 28.6639 54.176 28.6639H51.92C51.752 28.6639 51.68 28.5919 51.68 28.4239V22.6639C51.68 20.8159 50.792 19.8559 49.376 19.8799C47.936 19.8799 46.832 21.0799 46.736 23.1679V28.4239C46.736 28.5919 46.664 28.6639 46.496 28.6639H44.24C44.072 28.6639 44 28.5919 44 28.4239Z" fill="#11636E"/>
</svg>
